<svg width="233" height="54" viewBox="0 0 233 54" fill="none" xmlns="http://www.w3.org/2000/svg">
<g filter="url(#filter0_d_502_3)">
<path d="M73.8569 39.9655C79.8852 39.9655 84.117 36.8276 84.117 31.2356C84.117 26.2471 80.9232 24.1954 75.2542 22.7069C70.4236 21.4598 69.2259 20.8563 69.2259 19.0057C69.2259 17.5575 70.4635 16.4713 72.8189 16.4713C75.1744 16.4713 77.6096 17.5172 80.0848 19.2471L83.2786 14.5805C80.4441 12.2874 76.9709 11 72.8988 11C67.1899 11 63.1178 14.3793 63.1178 19.4885C63.1178 25.1609 66.7508 26.7299 72.3798 28.1782C77.0507 29.3851 78.0088 30.1897 78.0088 31.7586C78.0088 33.4885 76.4918 34.4943 73.9767 34.4943C70.7829 34.4943 68.148 33.1667 65.6329 31.0747L62 35.4598C65.3535 38.477 69.6252 39.9655 73.8569 39.9655Z" fill="#00315C"/>
<path d="M88.8138 46H94.8819V36.7471C96.3191 38.477 98.3153 39.9655 101.549 39.9655C106.619 39.9655 111.29 36.023 111.29 28.8218C111.29 21.5402 106.539 17.5977 101.549 17.5977C98.3951 17.5977 96.3591 19.0862 94.8819 21.0977V18H88.8138V46ZM99.992 34.7759C97.1575 34.7759 94.8021 32.4023 94.8021 28.8218C94.8021 25.1609 97.1575 22.7874 99.992 22.7874C102.826 22.7874 105.222 25.1609 105.222 28.7414C105.222 32.4425 102.826 34.7759 99.992 34.7759Z" fill="#00315C"/>
<path d="M115.754 39.5632H121.822V31.5977C121.822 26.4483 124.297 23.9943 128.329 23.9943H128.648V17.5977C125.055 17.4368 123.059 19.3678 121.822 22.3448V18H115.754V39.5632Z" fill="#00315C"/>
<path d="M137.494 39.9655C140.449 39.9655 142.485 38.8793 143.962 37.2299V39.5632H149.83V27.0517C149.83 24.1552 149.112 21.7816 147.515 20.1724C145.998 18.6437 143.602 17.7586 140.289 17.7586C136.656 17.7586 134.34 18.4425 131.985 19.4885L133.502 24.1552C135.458 23.431 137.095 22.9885 139.411 22.9885C142.445 22.9885 144.002 24.3966 144.002 26.931V27.2931C142.485 26.7701 140.928 26.408 138.772 26.408C133.702 26.408 130.149 28.5805 130.149 33.2874C130.149 37.6322 133.462 39.9655 137.494 39.9655ZM139.331 35.7414C137.375 35.7414 136.017 34.7759 136.017 33.1264C136.017 31.1149 137.614 30.069 140.209 30.069C141.686 30.069 143.044 30.3908 144.082 30.8736V31.9598C144.082 34.1724 142.165 35.7414 139.331 35.7414Z" fill="#00315C"/>
<path d="M160.78 39.7241H166.289L174.713 18H168.405L163.574 32.4425L158.784 18H152.356L160.78 39.7241Z" fill="#00315C"/>
<path d="M174.579 39.5632H181.046V33.1264H174.579V39.5632Z" fill="#00315C"/>
<path d="M193.348 39.9655C196.422 39.9655 198.218 38.3161 199.615 36.5057V39.5632H205.683V18H199.615V30.0287C199.615 32.9253 198.138 34.4138 195.823 34.4138C193.507 34.4138 192.15 32.9253 192.15 30.0287V18H186.082V31.9598C186.082 36.908 188.756 39.9655 193.348 39.9655Z" fill="#00315C"/>
<path d="M210.396 39.5632H229V34.6149H217.902L229 22.3046V18H210.756V22.9483H221.455L210.396 35.2586V39.5632Z" fill="#00315C"/>
</g>
<g filter="url(#filter1_d_502_3)">
<path fill-rule="evenodd" clip-rule="evenodd" d="M32.5859 43.6126C34.0571 43.1621 35.4874 42.5274 36.8155 41.7902V34.2547V22.6443V15.5798C36.8155 14.4126 35.8756 13.4707 34.711 13.4707C33.5463 13.4707 32.6064 14.4126 32.6064 15.5798V16.9518V37.0805V43.6126H32.5859Z" fill="#0AA9B4"/>
<path fill-rule="evenodd" clip-rule="evenodd" d="M24.1451 44.4928C24.7989 44.5542 25.4732 44.5747 26.1475 44.5747C26.9035 44.5747 27.6391 44.5337 28.3747 44.4518V21.6816C28.3747 20.5144 27.4348 19.5725 26.2701 19.5725C25.1054 19.5725 24.1655 20.5144 24.1655 21.6816V44.4723L24.1451 44.4928Z" fill="#00315C"/>
<path fill-rule="evenodd" clip-rule="evenodd" d="M51.2995 45.3077C52.2335 44.3846 52.2335 42.8667 51.2995 41.9231L44.3675 35.0718C46.775 31.5846 48.1656 27.359 48.1656 22.8256C48.1656 10.7846 38.2865 1 26.0828 1C13.8999 1 4 10.7641 4 22.8256C4 32.7128 10.6414 41.0615 19.7734 43.7282V27.8513C19.7734 26.6821 18.8187 25.7385 17.6357 25.7385C16.4527 25.7385 15.498 26.6821 15.498 27.8513V34.4974C12.2603 31.6256 10.2264 27.4615 10.2264 22.8256C10.2264 14.1692 17.3244 7.15385 26.1036 7.15385C34.862 7.15385 41.9808 14.1692 41.9808 22.8256C41.9808 24.4872 41.7109 26.0872 41.2336 27.5846V38.7231L47.8958 45.3077C48.8297 46.2308 50.3656 46.2308 51.3203 45.3077H51.2995Z" fill="#00315C"/>
</g>
<path d="M99.8911 6.42495H101.11C101.046 7.00846 100.879 7.53066 100.608 7.99154C100.338 8.45243 99.9546 8.81818 99.4594 9.08879C98.9643 9.35518 98.3464 9.48837 97.6058 9.48837C97.064 9.48837 96.571 9.38689 96.1266 9.18393C95.6865 8.98097 95.3077 8.69345 94.9903 8.32135C94.6729 7.94503 94.4274 7.49471 94.2539 6.9704C94.0846 6.44186 94 5.85412 94 5.20719V4.28753C94 3.64059 94.0846 3.05497 94.2539 2.53066C94.4274 2.00211 94.675 1.54968 94.9967 1.17336C95.3225 0.79704 95.714 0.5074 96.1711 0.30444C96.6281 0.10148 97.1423 0 97.7137 0C98.412 0 99.0024 0.131078 99.4848 0.393235C99.9673 0.655391 100.342 1.01903 100.608 1.48414C100.879 1.94503 101.046 2.47992 101.11 3.08879H99.8911C99.8318 2.65751 99.7218 2.28753 99.561 1.97886C99.4002 1.66596 99.1716 1.42495 98.8754 1.25581C98.5791 1.08668 98.1919 1.00211 97.7137 1.00211C97.3032 1.00211 96.9413 1.08034 96.6281 1.23679C96.3192 1.39323 96.0589 1.61522 95.8473 1.90275C95.6399 2.19027 95.4834 2.53488 95.3776 2.93658C95.2717 3.33827 95.2188 3.78436 95.2188 4.27484V5.20719C95.2188 5.65962 95.2654 6.08457 95.3585 6.48203C95.4558 6.87949 95.6019 7.22833 95.7965 7.52854C95.9912 7.82875 96.2388 8.06554 96.5393 8.2389C96.8397 8.40803 97.1952 8.4926 97.6058 8.4926C98.1263 8.4926 98.5411 8.41015 98.85 8.24524C99.1589 8.08034 99.3917 7.84355 99.5483 7.53488C99.7091 7.22622 99.8234 6.85624 99.8911 6.42495Z" fill="#0AA9B4"/>
<path d="M107.179 2.49894V3.46934H103.706V2.49894H107.179ZM103.878 2.49894V9.36152H102.703V2.49894H103.878ZM108.22 2.49894V9.36152H107.039V2.49894H108.22Z" fill="#0AA9B4"/>
<path d="M111.28 3.81818V12H110.099V2.49894H111.178L111.28 3.81818ZM115.908 5.87315V6.00634C115.908 6.50529 115.848 6.96829 115.73 7.39535C115.611 7.81818 115.438 8.18605 115.209 8.49894C114.985 8.81184 114.708 9.05497 114.378 9.22833C114.047 9.40169 113.669 9.48837 113.241 9.48837C112.805 9.48837 112.42 9.41649 112.086 9.27273C111.752 9.12896 111.468 8.91966 111.235 8.64482C111.002 8.36998 110.816 8.04017 110.677 7.65539C110.541 7.27061 110.448 6.83721 110.397 6.35518V5.64482C110.448 5.13742 110.543 4.68288 110.683 4.28118C110.823 3.87949 111.007 3.537 111.235 3.2537C111.468 2.96617 111.749 2.74841 112.08 2.60042C112.41 2.4482 112.791 2.37209 113.222 2.37209C113.654 2.37209 114.037 2.45666 114.371 2.62579C114.706 2.7907 114.987 3.02748 115.216 3.33615C115.444 3.64482 115.615 4.0148 115.73 4.44609C115.848 4.87315 115.908 5.34884 115.908 5.87315ZM114.727 6.00634V5.87315C114.727 5.53066 114.691 5.2093 114.619 4.90909C114.547 4.60465 114.435 4.33827 114.282 4.10994C114.134 3.87738 113.944 3.69556 113.711 3.56448C113.478 3.42918 113.201 3.36152 112.879 3.36152C112.583 3.36152 112.325 3.41226 112.105 3.51374C111.889 3.61522 111.705 3.75264 111.553 3.926C111.4 4.09514 111.275 4.28964 111.178 4.50951C111.085 4.72516 111.015 4.94926 110.969 5.18182V6.82452C111.053 7.12051 111.172 7.39958 111.324 7.66173C111.476 7.91966 111.68 8.12896 111.934 8.28964C112.187 8.44609 112.507 8.52431 112.892 8.52431C113.21 8.52431 113.483 8.45877 113.711 8.3277C113.944 8.19239 114.134 8.00846 114.282 7.7759C114.435 7.54334 114.547 7.27696 114.619 6.97674C114.691 6.6723 114.727 6.34884 114.727 6.00634Z" fill="#0AA9B4"/>
<path d="M121.456 8.18816V4.65539C121.456 4.38478 121.401 4.15011 121.291 3.95137C121.185 3.74841 121.024 3.59197 120.808 3.48203C120.592 3.37209 120.326 3.31712 120.008 3.31712C119.712 3.31712 119.452 3.36786 119.228 3.46934C119.008 3.57082 118.834 3.70402 118.707 3.86892C118.584 4.03383 118.523 4.21142 118.523 4.40169H117.349C117.349 4.15645 117.412 3.91332 117.539 3.6723C117.666 3.43129 117.848 3.21353 118.085 3.01903C118.326 2.8203 118.614 2.66385 118.948 2.54968C119.287 2.43129 119.664 2.37209 120.078 2.37209C120.578 2.37209 121.018 2.45666 121.399 2.62579C121.784 2.79493 122.084 3.05074 122.3 3.39323C122.52 3.7315 122.63 4.15645 122.63 4.66808V7.86469C122.63 8.09302 122.649 8.33615 122.687 8.59408C122.73 8.85201 122.791 9.074 122.871 9.26004V9.36152H121.646C121.587 9.22622 121.54 9.04651 121.507 8.82241C121.473 8.59408 121.456 8.38266 121.456 8.18816ZM121.659 5.20085L121.672 6.02537H120.485C120.15 6.02537 119.852 6.05285 119.589 6.10782C119.327 6.15856 119.107 6.23679 118.929 6.34249C118.751 6.4482 118.616 6.5814 118.523 6.74207C118.43 6.89852 118.383 7.08245 118.383 7.29387C118.383 7.50951 118.432 7.70613 118.529 7.88372C118.627 8.06131 118.773 8.20296 118.967 8.30867C119.166 8.41015 119.41 8.46089 119.697 8.46089C120.057 8.46089 120.374 8.38478 120.65 8.23256C120.925 8.08034 121.143 7.89429 121.303 7.67442C121.468 7.45455 121.557 7.24101 121.57 7.03383L122.072 7.59831C122.042 7.7759 121.962 7.97252 121.83 8.18816C121.699 8.40381 121.524 8.61099 121.303 8.80972C121.088 9.00423 120.829 9.16702 120.529 9.2981C120.233 9.42495 119.898 9.48837 119.526 9.48837C119.06 9.48837 118.652 9.39746 118.301 9.21564C117.954 9.03383 117.683 8.7907 117.488 8.48626C117.298 8.17759 117.203 7.83298 117.203 7.45243C117.203 7.08457 117.274 6.7611 117.418 6.48203C117.562 6.19873 117.77 5.96406 118.04 5.77801C118.311 5.58774 118.637 5.44397 119.018 5.34672C119.399 5.24947 119.824 5.20085 120.294 5.20085H121.659Z" fill="#0AA9B4"/>
<path d="M127.702 6.34249H125.449L125.436 5.40381H127.277C127.641 5.40381 127.944 5.36786 128.185 5.29598C128.43 5.2241 128.614 5.11628 128.737 4.97252C128.86 4.82875 128.921 4.65116 128.921 4.43975C128.921 4.27484 128.885 4.13108 128.813 4.00846C128.746 3.88161 128.642 3.77801 128.502 3.69767C128.363 3.61311 128.189 3.5518 127.982 3.51374C127.779 3.47146 127.539 3.45032 127.264 3.45032H125.76V9.36152H124.585V2.49894H127.264C127.7 2.49894 128.092 2.537 128.439 2.61311C128.79 2.68922 129.088 2.8055 129.334 2.96195C129.584 3.11416 129.774 3.30867 129.905 3.54545C130.036 3.78224 130.102 4.06131 130.102 4.38266C130.102 4.58985 130.06 4.78647 129.975 4.97252C129.89 5.15856 129.766 5.32347 129.6 5.46723C129.435 5.61099 129.232 5.72939 128.991 5.82241C128.75 5.91121 128.473 5.96829 128.159 5.99366L127.702 6.34249ZM127.702 9.36152H125.023L125.607 8.41015H127.702C128.028 8.41015 128.299 8.36998 128.515 8.28964C128.731 8.20507 128.892 8.08668 128.997 7.93446C129.107 7.77801 129.162 7.59197 129.162 7.37632C129.162 7.16068 129.107 6.97674 128.997 6.82452C128.892 6.66808 128.731 6.54968 128.515 6.46934C128.299 6.38478 128.028 6.34249 127.702 6.34249H125.919L125.931 5.40381H128.159L128.585 5.75899C128.961 5.78858 129.281 5.88161 129.543 6.03805C129.806 6.1945 130.005 6.39323 130.14 6.63425C130.276 6.87104 130.343 7.12896 130.343 7.40803C130.343 7.72939 130.282 8.01268 130.159 8.25793C130.041 8.50317 129.867 8.70825 129.639 8.87315C129.41 9.03383 129.133 9.15645 128.807 9.24101C128.481 9.32135 128.113 9.36152 127.702 9.36152Z" fill="#0AA9B4"/>
<path d="M131.607 6.00634V5.86047C131.607 5.36575 131.678 4.90698 131.822 4.48414C131.966 4.05708 132.174 3.6871 132.444 3.37421C132.715 3.05708 133.043 2.81184 133.428 2.63848C133.814 2.46089 134.245 2.37209 134.723 2.37209C135.206 2.37209 135.64 2.46089 136.025 2.63848C136.414 2.81184 136.744 3.05708 137.015 3.37421C137.29 3.6871 137.5 4.05708 137.644 4.48414C137.788 4.90698 137.859 5.36575 137.859 5.86047V6.00634C137.859 6.50106 137.788 6.95983 137.644 7.38266C137.5 7.8055 137.29 8.17548 137.015 8.4926C136.744 8.8055 136.416 9.05074 136.031 9.22833C135.65 9.40169 135.219 9.48837 134.736 9.48837C134.254 9.48837 133.82 9.40169 133.435 9.22833C133.05 9.05074 132.72 8.8055 132.444 8.4926C132.174 8.17548 131.966 7.8055 131.822 7.38266C131.678 6.95983 131.607 6.50106 131.607 6.00634ZM132.781 5.86047V6.00634C132.781 6.34884 132.821 6.6723 132.902 6.97674C132.982 7.27696 133.103 7.54334 133.263 7.7759C133.428 8.00846 133.634 8.19239 133.879 8.3277C134.125 8.45877 134.41 8.52431 134.736 8.52431C135.058 8.52431 135.339 8.45877 135.58 8.3277C135.826 8.19239 136.029 8.00846 136.19 7.7759C136.351 7.54334 136.471 7.27696 136.552 6.97674C136.636 6.6723 136.679 6.34884 136.679 6.00634V5.86047C136.679 5.5222 136.636 5.20296 136.552 4.90275C136.471 4.59831 136.349 4.32981 136.184 4.09725C136.023 3.86046 135.82 3.67442 135.574 3.53911C135.333 3.40381 135.049 3.33615 134.723 3.33615C134.402 3.33615 134.118 3.40381 133.873 3.53911C133.632 3.67442 133.428 3.86046 133.263 4.09725C133.103 4.32981 132.982 4.59831 132.902 4.90275C132.821 5.20296 132.781 5.5222 132.781 5.86047Z" fill="#0AA9B4"/>
<path d="M144.512 2.49894V9.36152H143.338V2.49894H144.512ZM144.112 5.65116V6.61522C143.875 6.70402 143.634 6.78436 143.389 6.85624C143.147 6.92389 142.891 6.97886 142.621 7.02114C142.354 7.0592 142.064 7.07822 141.751 7.07822C141.209 7.07822 140.739 6.9852 140.342 6.79915C139.944 6.60888 139.637 6.32347 139.421 5.94292C139.205 5.55814 139.097 5.074 139.097 4.49049V2.48626H140.272V4.49049C140.272 4.87104 140.329 5.1797 140.443 5.41649C140.557 5.65328 140.725 5.82875 140.945 5.94292C141.165 6.05285 141.433 6.10782 141.751 6.10782C142.056 6.10782 142.341 6.0888 142.608 6.05074C142.879 6.00846 143.137 5.95349 143.382 5.88584C143.632 5.81818 143.875 5.73996 144.112 5.65116Z" fill="#0AA9B4"/>
<path d="M151.064 5.47357V6.42495H147.432V5.47357H151.064ZM147.68 2.49894V9.36152H146.506V2.49894H147.68ZM152.016 2.49894V9.36152H150.835V2.49894H152.016Z" fill="#0AA9B4"/>
<path d="M155.177 7.50317L158.345 2.49894H159.526V9.36152H158.345V4.35729L155.177 9.36152H154.009V2.49894H155.177V7.50317Z" fill="#0AA9B4"/>
<path d="M162.687 2.49894V9.36152H161.513V2.49894H162.687ZM167.194 2.49894L163.938 6.43129H162.294L162.116 5.40381H163.462L165.766 2.49894H167.194ZM165.931 9.36152L163.404 6.2537L164.16 5.40381L167.423 9.36152H165.931Z" fill="#0AA9B4"/>
<path d="M175.009 0.12685V9.36152H173.803V0.12685H175.009ZM177.98 0.12685V1.12896H170.838V0.12685H177.98Z" fill="#0AA9B4"/>
<path d="M182.5 8.18816V4.65539C182.5 4.38478 182.445 4.15011 182.335 3.95137C182.229 3.74841 182.068 3.59197 181.852 3.48203C181.636 3.37209 181.37 3.31712 181.052 3.31712C180.756 3.31712 180.496 3.36786 180.272 3.46934C180.051 3.57082 179.878 3.70402 179.751 3.86892C179.628 4.03383 179.567 4.21142 179.567 4.40169H178.392C178.392 4.15645 178.456 3.91332 178.583 3.6723C178.71 3.43129 178.892 3.21353 179.129 3.01903C179.37 2.8203 179.658 2.66385 179.992 2.54968C180.331 2.43129 180.707 2.37209 181.122 2.37209C181.622 2.37209 182.062 2.45666 182.443 2.62579C182.828 2.79493 183.128 3.05074 183.344 3.39323C183.564 3.7315 183.674 4.15645 183.674 4.66808V7.86469C183.674 8.09302 183.693 8.33615 183.731 8.59408C183.774 8.85201 183.835 9.074 183.915 9.26004V9.36152H182.69C182.631 9.22622 182.584 9.04651 182.551 8.82241C182.517 8.59408 182.5 8.38266 182.5 8.18816ZM182.703 5.20085L182.716 6.02537H181.528C181.194 6.02537 180.896 6.05285 180.633 6.10782C180.371 6.15856 180.151 6.23679 179.973 6.34249C179.795 6.4482 179.66 6.5814 179.567 6.74207C179.474 6.89852 179.427 7.08245 179.427 7.29387C179.427 7.50951 179.476 7.70613 179.573 7.88372C179.671 8.06131 179.817 8.20296 180.011 8.30867C180.21 8.41015 180.453 8.46089 180.741 8.46089C181.101 8.46089 181.418 8.38478 181.694 8.23256C181.969 8.08034 182.187 7.89429 182.347 7.67442C182.512 7.45455 182.601 7.24101 182.614 7.03383L183.115 7.59831C183.086 7.7759 183.005 7.97252 182.874 8.18816C182.743 8.40381 182.567 8.61099 182.347 8.80972C182.132 9.00423 181.873 9.16702 181.573 9.2981C181.277 9.42495 180.942 9.48837 180.57 9.48837C180.104 9.48837 179.696 9.39746 179.345 9.21564C178.998 9.03383 178.727 8.7907 178.532 8.48626C178.342 8.17759 178.246 7.83298 178.246 7.45243C178.246 7.08457 178.318 6.7611 178.462 6.48203C178.606 6.19873 178.814 5.96406 179.084 5.77801C179.355 5.58774 179.681 5.44397 180.062 5.34672C180.443 5.24947 180.868 5.20085 181.338 5.20085H182.703Z" fill="#0AA9B4"/>
<path d="M185.623 2.49894H186.797V8.39746H189.311V2.49894H190.492V8.39746H193V2.49894H194.174V9.36152H185.623V2.49894Z" fill="#0AA9B4"/>
<path d="M197.323 2.49894V9.36152H196.148V2.49894H197.323ZM201.83 2.49894L198.573 6.43129H196.929L196.751 5.40381H198.097L200.402 2.49894H201.83ZM200.567 9.36152L198.04 6.2537L198.795 5.40381L202.058 9.36152H200.567Z" fill="#0AA9B4"/>
<path d="M205.829 9.48837C205.351 9.48837 204.917 9.40803 204.528 9.24736C204.143 9.08245 203.811 8.85201 203.531 8.55603C203.256 8.26004 203.044 7.90909 202.896 7.50317C202.748 7.09725 202.674 6.65328 202.674 6.17125V5.90486C202.674 5.34672 202.757 4.84989 202.922 4.41438C203.087 3.97463 203.311 3.60254 203.595 3.2981C203.878 2.99366 204.2 2.76321 204.56 2.60677C204.919 2.45032 205.292 2.37209 205.677 2.37209C206.168 2.37209 206.591 2.45666 206.946 2.62579C207.306 2.79493 207.6 3.03171 207.829 3.33615C208.057 3.63636 208.227 3.99154 208.337 4.40169C208.447 4.80761 208.502 5.25159 208.502 5.73362V6.26004H203.372V5.30233H207.327V5.21353C207.31 4.90909 207.247 4.61311 207.137 4.32558C207.031 4.03806 206.862 3.80127 206.629 3.61522C206.396 3.42918 206.079 3.33615 205.677 3.33615C205.41 3.33615 205.165 3.39323 204.94 3.5074C204.716 3.61734 204.524 3.78224 204.363 4.00211C204.202 4.22199 204.077 4.49049 203.988 4.80761C203.899 5.12474 203.855 5.49049 203.855 5.90486V6.17125C203.855 6.49683 203.899 6.80338 203.988 7.09091C204.081 7.37421 204.215 7.62368 204.388 7.83932C204.566 8.05497 204.78 8.2241 205.029 8.34672C205.283 8.46935 205.571 8.53066 205.893 8.53066C206.307 8.53066 206.659 8.44609 206.946 8.27696C207.234 8.10782 207.486 7.88161 207.702 7.59831L208.413 8.16279C208.265 8.38689 208.076 8.60042 207.848 8.80338C207.619 9.00634 207.338 9.17125 207.004 9.2981C206.674 9.42495 206.282 9.48837 205.829 9.48837Z" fill="#0AA9B4"/>
<path d="M214.533 5.47357V6.42495H210.901V5.47357H214.533ZM211.149 2.49894V9.36152H209.975V2.49894H211.149ZM215.485 2.49894V9.36152H214.304V2.49894H215.485Z" fill="#0AA9B4"/>
<path d="M220.176 2.49894V9.36152H218.995V2.49894H220.176ZM222.48 2.49894V3.45032H216.735V2.49894H222.48Z" fill="#0AA9B4"/>
<path d="M227.584 8.18816V4.65539C227.584 4.38478 227.529 4.15011 227.419 3.95137C227.314 3.74841 227.153 3.59197 226.937 3.48203C226.721 3.37209 226.454 3.31712 226.137 3.31712C225.841 3.31712 225.58 3.36786 225.356 3.46934C225.136 3.57082 224.963 3.70402 224.836 3.86892C224.713 4.03383 224.652 4.21142 224.652 4.40169H223.477C223.477 4.15645 223.541 3.91332 223.668 3.6723C223.795 3.43129 223.976 3.21353 224.213 3.01903C224.455 2.8203 224.743 2.66385 225.077 2.54968C225.415 2.43129 225.792 2.37209 226.207 2.37209C226.706 2.37209 227.146 2.45666 227.527 2.62579C227.912 2.79493 228.213 3.05074 228.429 3.39323C228.649 3.7315 228.759 4.15645 228.759 4.66808V7.86469C228.759 8.09302 228.778 8.33615 228.816 8.59408C228.858 8.85201 228.92 9.074 229 9.26004V9.36152H227.775C227.716 9.22622 227.669 9.04651 227.635 8.82241C227.601 8.59408 227.584 8.38266 227.584 8.18816ZM227.788 5.20085L227.8 6.02537H226.613C226.279 6.02537 225.98 6.05285 225.718 6.10782C225.456 6.15856 225.236 6.23679 225.058 6.34249C224.88 6.4482 224.745 6.5814 224.652 6.74207C224.558 6.89852 224.512 7.08245 224.512 7.29387C224.512 7.50951 224.561 7.70613 224.658 7.88372C224.755 8.06131 224.901 8.20296 225.096 8.30867C225.295 8.41015 225.538 8.46089 225.826 8.46089C226.186 8.46089 226.503 8.38478 226.778 8.23256C227.053 8.08034 227.271 7.89429 227.432 7.67442C227.597 7.45455 227.686 7.24101 227.699 7.03383L228.2 7.59831C228.171 7.7759 228.09 7.97252 227.959 8.18816C227.828 8.40381 227.652 8.61099 227.432 8.80972C227.216 9.00423 226.958 9.16702 226.658 9.2981C226.361 9.42495 226.027 9.48837 225.655 9.48837C225.189 9.48837 224.781 9.39746 224.429 9.21564C224.082 9.03383 223.811 8.7907 223.617 8.48626C223.426 8.17759 223.331 7.83298 223.331 7.45243C223.331 7.08457 223.403 6.7611 223.547 6.48203C223.691 6.19873 223.898 5.96406 224.169 5.77801C224.44 5.58774 224.766 5.44397 225.147 5.34672C225.528 5.24947 225.953 5.20085 226.423 5.20085H227.788Z" fill="#0AA9B4"/>
<defs>
<filter id="filter0_d_502_3" x="58" y="11" width="175" height="43" filterUnits="userSpaceOnUse" color-interpolation-filters="sRGB">
<feFlood flood-opacity="0" result="BackgroundImageFix"/>
<feColorMatrix in="SourceAlpha" type="matrix" values="0 0 0 0 0 0 0 0 0 0 0 0 0 0 0 0 0 0 127 0" result="hardAlpha"/>
<feOffset dy="4"/>
<feGaussianBlur stdDeviation="2"/>
<feComposite in2="hardAlpha" operator="out"/>
<feColorMatrix type="matrix" values="0 0 0 0 0 0 0 0 0 0 0 0 0 0 0 0 0 0 0.25 0"/>
<feBlend mode="normal" in2="BackgroundImageFix" result="effect1_dropShadow_502_3"/>
<feBlend mode="normal" in="SourceGraphic" in2="effect1_dropShadow_502_3" result="shape"/>
</filter>
<filter id="filter1_d_502_3" x="0" y="1" width="56" height="53" filterUnits="userSpaceOnUse" color-interpolation-filters="sRGB">
<feFlood flood-opacity="0" result="BackgroundImageFix"/>
<feColorMatrix in="SourceAlpha" type="matrix" values="0 0 0 0 0 0 0 0 0 0 0 0 0 0 0 0 0 0 127 0" result="hardAlpha"/>
<feOffset dy="4"/>
<feGaussianBlur stdDeviation="2"/>
<feComposite in2="hardAlpha" operator="out"/>
<feColorMatrix type="matrix" values="0 0 0 0 0 0 0 0 0 0 0 0 0 0 0 0 0 0 0.25 0"/>
<feBlend mode="normal" in2="BackgroundImageFix" result="effect1_dropShadow_502_3"/>
<feBlend mode="normal" in="SourceGraphic" in2="effect1_dropShadow_502_3" result="shape"/>
</filter>
</defs>
</svg>
